<svg xmlns="http://www.w3.org/2000/svg" width="32" height="32" viewBox="0 0 32 32">
  <!-- Enhanced gradient definitions -->
  <defs>
    <linearGradient id="frontGradient" x1="0%" y1="0%" x2="100%" y2="100%">
      <stop offset="0%" style="stop-color:#6366f1">
        <animate attributeName="stop-color" values="#6366f1;#8b5cf6;#6366f1" dur="3s" repeatCount="indefinite"/>
      </stop>
      <stop offset="100%" style="stop-color:#8b5cf6">
        <animate attributeName="stop-color" values="#8b5cf6;#6366f1;#8b5cf6" dur="3s" repeatCount="indefinite"/>
      </stop>
    </linearGradient>
    <linearGradient id="sideGradient" x1="0%" y1="0%" x2="100%" y2="100%">
      <stop offset="0%" style="stop-color:#4338ca">
        <animate attributeName="stop-color" values="#4338ca;#6d28d9;#4338ca" dur="3s" repeatCount="indefinite"/>
      </stop>
      <stop offset="100%" style="stop-color:#6d28d9">
        <animate attributeName="stop-color" values="#6d28d9;#4338ca;#6d28d9" dur="3s" repeatCount="indefinite"/>
      </stop>
    </linearGradient>
    
    <!-- Add glow effect -->
    <filter id="glow">
      <feGaussianBlur stdDeviation="0.5" result="coloredBlur"/>
      <feMerge>
        <feMergeNode in="coloredBlur"/>
        <feMergeNode in="SourceGraphic"/>
      </feMerge>
    </filter>
  </defs>

  <!-- Background circle with pulse animation -->
  <circle cx="16" cy="16" r="15" fill="none" stroke="url(#frontGradient)" stroke-width="0.5">
    <animate attributeName="r" values="15;16;15" dur="2s" repeatCount="indefinite"/>
    <animate attributeName="opacity" values="0.3;0.7;0.3" dur="2s" repeatCount="indefinite"/>
  </circle>

  <!-- 3D effect achieved with multiple layers and transforms -->
  <!-- Shadow layer with hover animation -->
  <path fill="#1f1f1f" transform="translate(1, 1)" d="M8 4h8c3.3 0 6 2.7 6 6c0 2.4-1.4 4.4-3.4 5.4L22 24h-4l-3-8h-3v8h-4V4zm4 4v4h4c1.1 0 2-0.9 2-2s-0.9-2-2-2h-4z">
    <animate attributeName="transform" values="translate(1, 1);translate(1.2, 1.2);translate(1, 1)" dur="2s" repeatCount="indefinite"/>
  </path>
  
  <!-- Side layer for 3D effect -->
  <path fill="url(#sideGradient)" filter="url(#glow)" transform="translate(0.5, 0.5)" d="M8 4h8c3.3 0 6 2.7 6 6c0 2.4-1.4 4.4-3.4 5.4L22 24h-4l-3-8h-3v8h-4V4zm4 4v4h4c1.1 0 2-0.9 2-2s-0.9-2-2-2h-4z"/>
  
  <!-- Front layer -->
  <path fill="url(#frontGradient)" filter="url(#glow)" d="M8 4h8c3.3 0 6 2.7 6 6c0 2.4-1.4 4.4-3.4 5.4L22 24h-4l-3-8h-3v8h-4V4zm4 4v4h4c1.1 0 2-0.9 2-2s-0.9-2-2-2h-4z"/>

  <!-- Second R with same 3D treatment and animations -->
  <!-- Shadow layer -->
  <path fill="#1f1f1f" transform="translate(-15, 5) scale(0.8)" d="M24 4h8c3.3 0 6 2.7 6 6c0 2.4-1.4 4.4-3.4 5.4L38 24h-4l-3-8h-3v8h-4V4zm4 4v4h4c1.1 0 2-0.9 2-2s-0.9-2-2-2h-4z">
    <animate attributeName="transform" values="translate(-15, 5) scale(0.8);translate(-14.8, 5.2) scale(0.8);translate(-15, 5) scale(0.8)" dur="2s" repeatCount="indefinite"/>
  </path>
  
  <!-- Side layer -->
  <path fill="url(#sideGradient)" filter="url(#glow)" transform="translate(-15.5, 4.5) scale(0.8)" d="M24 4h8c3.3 0 6 2.7 6 6c0 2.4-1.4 4.4-3.4 5.4L38 24h-4l-3-8h-3v8h-4V4zm4 4v4h4c1.1 0 2-0.9 2-2s-0.9-2-2-2h-4z"/>
  
  <!-- Front layer -->
  <path fill="url(#frontGradient)" filter="url(#glow)" transform="translate(-16, 4) scale(0.8)" d="M24 4h8c3.3 0 6 2.7 6 6c0 2.4-1.4 4.4-3.4 5.4L38 24h-4l-3-8h-3v8h-4V4zm4 4v4h4c1.1 0 2-0.9 2-2s-0.9-2-2-2h-4z"/>
</svg>